{"title":"London Has Fallen 2016 TS English Movies xviD-TvMovize.mp4","uid":13892937,"size":821213657,"categoryP":"video","categoryS":"movies","magnet":"?xt=urn:btih:2bccf4eb9941f685b7ee3488a8d533db6762a51d&amp;dn=London+Has+Fallen+2016+TS+English+Movies+xviD-TvMovize.mp4&amp;tr=udp%3A%2F%2Ftracker.leechers-paradise.org%3A6969&amp;tr=udp%3A%2F%2Fzer0day.ch%3A1337&amp;tr=udp%3A%2F%2Fopen.demonii.com%3A1337&amp;tr=udp%3A%2F%2Ftracker.coppersurfer.tk%3A6969&amp;tr=udp%3A%2F%2Fexodus.desync.com%3A6969","seeders":15,"leechers":20,"uploader":"TvMovize","files":1,"time":1458222040,"description":"London Has Fallen 2016 TS English Movies xviD-TvMovize.mp4\r\n\r\n++ ScreenShots ++\r\n \nhttp://www.image2be.com/movie/LondonHasFallen/1.html  \nhttp://www.image2be.com/movie/LondonHasFallen/2.html  \nhttp://www.image2be.com/movie/LondonHasFallen/3.html  \nhttp://www.image2be.com/movie/LondonHasFallen/4.html  \nhttp://www.image2be.com/movie/LondonHasFallen/5.html \r\n\r\n++ Info ++\r\n\r\nFormat : MPEG-4 \r\nFormat profile : Base Media \r\nCodec ID : isom (isom/iso2/avc1/mp41) \r\nFile size : 783 MiB \r\nDuration : 1h 22mn \r\nOverall bit rate : 1 332 Kbps \r\nMovie name : London Has\r\nWriting application : Lavf57.20.100 \r\n\r\nVideo \r\nID : 1 \r\nFormat : AVC \r\nFormat/Info : Advanced Video Codec \r\nFormat profile :    \r\nFormat settings, CABAC : Yes \r\nFormat settings, ReFrames : 1 frame \r\nCodec ID : avc1 \r\nCodec ID/Info : Advanced Video Coding \r\nDuration : 1h 22mn \r\nBit rate : 1 198 Kbps \r\nWidth : 1 024 pixels \r\nHeight : 576 pixels \r\nDisplay aspect ratio : 16:9 \r\nFrame rate mode : Constant \r\nFrame rate : 25.000 fps \r\nColor space : YUV \r\nChroma subsampling : 4:2:0 \r\nBit depth : 8 bits \r\nScan type : Progressive \r\nBits/(Pixel*Frame) : 0.081 \r\nStream size : 704 MiB (90%) \r\n\r\nAudio \r\nID : 2 \r\nFormat : AAC \r\nFormat/Info : Advanced Audio Codec \r\nFormat profile : LC \r\nCodec ID : 40 \r\nDuration : 1h 22mn \r\nBit rate mode : Constant \r\nBit rate : 129 Kbps \r\nChannel(s) : 2 channels \r\nChannel positions : Front: L R \r\nSampling rate : 44.1 KHz \r\nFrame rate : 43.066 fps (1024 spf) \r\nCompression mode : Lossy \r\nStream size : 75.6 MiB (10%) \r\nDefault : Yes \r\nAlternate group : 1","torrent":{"xt":"urn:btih:2bccf4eb9941f685b7ee3488a8d533db6762a51d","amp;dn":"London+Has+Fallen+2016+TS+English+Movies+xviD-TvMovize.mp4","amp;tr":["udp%3A%2F%2Ftracker.leechers-paradise.org%3A6969","udp%3A%2F%2Fzer0day.ch%3A1337","udp%3A%2F%2Fopen.demonii.com%3A1337","udp%3A%2F%2Ftracker.coppersurfer.tk%3A6969","udp%3A%2F%2Fexodus.desync.com%3A6969"],"infoHash":"2bccf4eb9941f685b7ee3488a8d533db6762a51d","infoHashBuffer":{"type":"Buffer","data":[43,204,244,235,153,65,246,133,183,238,52,136,168,213,51,219,103,98,165,29]},"announce":[],"urlList":[]}}